ffmpeg version 3.4.8-0ubuntu0.2 Copyright (c) 2000-2020 the FFmpeg developers
  built with gcc 7 (Ubuntu 7.5.0-3ubuntu1~18.04)
  configuration: --prefix=/usr --extra-version=0ubuntu0.2 --toolchain=hardened --libdir=/usr/lib/x86_64-linux-gnu --incdir=/usr/include/x86_64-linux-gnu --enable-gpl --disable-stripping --enable-avresample --enable-avisynth --enable-gnutls --enable-ladspa --enable-libass --enable-libbluray --enable-libbs2b --enable-libcaca --enable-libcdio --enable-libflite --enable-libfontconfig --enable-libfreetype --enable-libfribidi --enable-libgme --enable-libgsm --enable-libmp3lame --enable-libmysofa --enable-libopenjpeg --enable-libopenmpt --enable-libopus --enable-libpulse --enable-librubberband --enable-librsvg --enable-libshine --enable-libsnappy --enable-libsoxr --enable-libspeex --enable-libssh --enable-libtheora --enable-libtwolame --enable-libvorbis --enable-libvpx --enable-libwavpack --enable-libwebp --enable-libx265 --enable-libxml2 --enable-libxvid --enable-libzmq --enable-libzvbi --enable-omx --enable-openal --enable-opengl --enable-sdl2 --enable-libdc1394 --enable-libdrm --enable-libiec61883 --enable-chromaprint --enable-frei0r --enable-libopencv --enable-libx264 --enable-shared
  libavutil      55. 78.100 / 55. 78.100
  libavcodec     57.107.100 / 57.107.100
  libavformat    57. 83.100 / 57. 83.100
  libavdevice    57. 10.100 / 57. 10.100
  libavfilter     6.107.100 /  6.107.100
  libavresample   3.  7.  0 /  3.  7.  0
  libswscale      4.  8.100 /  4.  8.100
  libswresample   2.  9.100 /  2.  9.100
  libpostproc    54.  7.100 / 54.  7.100
[rawvideo @ 0x5592a1517a20] Estimating duration from bitrate, this may be inaccurate
Input #0, rawvideo, from '../../SVC-Encoder-20220109T061506Z-001/SVC-Encoder/Dataset/RollerCoaster/ERP_8x8/tile_yuv/Tile_13_480x240.yuv':
  Duration: 00:00:10.00, start: 0.000000, bitrate: 41472 kb/s
    Stream #0:0: Video: rawvideo (I420 / 0x30323449), yuv420p, 480x240, 41472 kb/s, 30 tbr, 30 tbn, 30 tbc
Stream mapping:
  Stream #0:0 -> #0:0 (rawvideo (native) -> h264 (libx264))
Press [q] to stop, [?] for help
[libx264 @ 0x5592a1524c60] using cpu capabilities: MMX2 SSE2Fast LZCNT SSSE3 SSE4.2 AVX
[libx264 @ 0x5592a1524c60] profile High, level 2.1
Output #0, rawvideo, to 'RollerCoaster_Tile_13_480x240_x264_QP_28.h264':
  Metadata:
    encoder         : Lavf57.83.100
    Stream #0:0: Video: h264 (libx264), yuv420p, 480x240, q=-1--1, 30 fps, 30 tbn, 30 tbc
    Metadata:
      encoder         : Lavc57.107.100 libx264
    Side data:
      cpb: bitrate max/min/avg: 0/0/0 buffer size: 0 vbv_delay: -1
frame=  300 fps=0.0 q=34.0 LPSNR=Y:inf U:inf V:inf *:inf size=       7kB time=00:00:09.93 bitrate=   5.8kbits/s speed=51.3x    
video:7kB audio:0kB subtitle:0kB other streams:0kB global headers:0kB muxing overhead: 0.000000%
[libx264 @ 0x5592a1524c60] frame I:2     Avg QP:25.91  size:   654  PSNR Mean Y:53.44 U:55.64 V:59.83 Avg:54.37 Global:54.17
[libx264 @ 0x5592a1524c60] frame P:76    Avg QP:29.54  size:    35  PSNR Mean Y:51.79 U:55.22 V:60.07 Avg:52.93 Global:52.88
[libx264 @ 0x5592a1524c60] frame B:222   Avg QP:33.67  size:    15  PSNR Mean Y:51.84 U:55.18 V:59.98 Avg:52.97 Global:52.92
[libx264 @ 0x5592a1524c60] consecutive B-frames:  1.3%  0.0%  0.0% 98.7%
[libx264 @ 0x5592a1524c60] mb I  I16..4: 63.4% 36.6%  0.0%
[libx264 @ 0x5592a1524c60] mb P  I16..4:  0.4%  0.6%  0.0%  P16..4:  0.6%  0.1%  0.0%  0.0%  0.0%    skip:98.4%
[libx264 @ 0x5592a1524c60] mb B  I16..4:  0.0%  0.0%  0.0%  B16..8:  0.0%  0.0%  0.0%  direct: 0.0%  skip:100.0%  L0:61.9% L1:38.1% BI: 0.0%
[libx264 @ 0x5592a1524c60] 8x8 transform intra:44.2% inter:53.8%
[libx264 @ 0x5592a1524c60] coded y,uvDC,uvAC intra: 0.5% 3.2% 0.0% inter: 0.0% 0.0% 0.0%
[libx264 @ 0x5592a1524c60] i16 v,h,dc,p: 40% 39% 14%  7%
[libx264 @ 0x5592a1524c60] i8 v,h,dc,ddl,ddr,vr,hd,vl,hu:  3% 38% 59%  0%  0%  0%  0%  0%  0%
[libx264 @ 0x5592a1524c60] i4 v,h,dc,ddl,ddr,vr,hd,vl,hu:  0%  0% 85%  0%  2%  2%  8%  2%  0%
[libx264 @ 0x5592a1524c60] i8c dc,h,v,p: 94%  3%  3%  0%
[libx264 @ 0x5592a1524c60] Weighted P-Frames: Y:0.0% UV:0.0%
[libx264 @ 0x5592a1524c60] ref P L0: 77.6%  4.1% 16.7%  1.6%
[libx264 @ 0x5592a1524c60] ref B L0: 84.6% 15.4%
[libx264 @ 0x5592a1524c60] ref B L1: 87.5% 12.5%
[libx264 @ 0x5592a1524c60] PSNR Mean Y:51.837 U:55.193 V:60.000 Avg:52.968 Global:52.914 kb/s:5.78
